<mxfile host="Electron" modified="2023-07-17T09:23:07.876Z" agent="Mozilla/5.0 (Windows NT 6.1; Win64; x64) AppleWebKit/537.36 (KHTML, like Gecko) draw.io/21.1.2 Chrome/106.0.5249.199 Electron/21.4.3 Safari/537.36" etag="Lh5B-1pqUFxiIjNif7LT" version="21.1.2" type="device">
  <diagram name="ページ1" id="XszuJa-m96tr9Ag_DXBN">
    <mxGraphModel dx="1098" dy="775" grid="1" gridSize="10" guides="1" tooltips="1" connect="1" arrows="1" fold="1" page="1" pageScale="1" pageWidth="1169" pageHeight="827" math="0" shadow="0">
      <root>
        <mxCell id="0" />
        <mxCell id="1" parent="0" />
        <mxCell id="YaJR7tYNzF8kgT7-sj-D-1" value="" style="group" vertex="1" connectable="0" parent="1">
          <mxGeometry x="440" y="80" width="230" height="230" as="geometry" />
        </mxCell>
        <mxCell id="YaJR7tYNzF8kgT7-sj-D-2" value="" style="sketch=0;outlineConnect=0;dashed=0;verticalLabelPosition=bottom;verticalAlign=top;align=center;html=1;fontSize=12;fontStyle=0;aspect=fixed;pointerEvents=1;shape=mxgraph.aws4.container_registry_image;fillColor=#0050ef;strokeColor=#001DBC;gradientDirection=north;fontColor=#ffffff;" vertex="1" parent="YaJR7tYNzF8kgT7-sj-D-1">
          <mxGeometry width="230" height="230" as="geometry" />
        </mxCell>
        <mxCell id="YaJR7tYNzF8kgT7-sj-D-3" value="" style="rounded=0;whiteSpace=wrap;html=1;strokeColor=none;opacity=80;" vertex="1" parent="YaJR7tYNzF8kgT7-sj-D-1">
          <mxGeometry y="140" width="230" height="90" as="geometry" />
        </mxCell>
        <mxCell id="YaJR7tYNzF8kgT7-sj-D-4" value="" style="rounded=0;whiteSpace=wrap;html=1;strokeColor=none;opacity=80;" vertex="1" parent="YaJR7tYNzF8kgT7-sj-D-1">
          <mxGeometry x="140" width="90" height="140" as="geometry" />
        </mxCell>
        <mxCell id="YaJR7tYNzF8kgT7-sj-D-5" value="" style="rounded=0;whiteSpace=wrap;html=1;strokeWidth=6;fillColor=none;strokeColor=#000000;" vertex="1" parent="YaJR7tYNzF8kgT7-sj-D-1">
          <mxGeometry x="2" y="2" width="140" height="140" as="geometry" />
        </mxCell>
        <mxCell id="YaJR7tYNzF8kgT7-sj-D-6" style="rounded=0;orthogonalLoop=1;jettySize=auto;html=1;" edge="1" parent="1" source="YaJR7tYNzF8kgT7-sj-D-9" target="YaJR7tYNzF8kgT7-sj-D-5">
          <mxGeometry relative="1" as="geometry" />
        </mxCell>
        <mxCell id="YaJR7tYNzF8kgT7-sj-D-7" style="rounded=0;orthogonalLoop=1;jettySize=auto;html=1;entryX=1;entryY=0.75;entryDx=0;entryDy=0;" edge="1" parent="1" source="YaJR7tYNzF8kgT7-sj-D-8" target="YaJR7tYNzF8kgT7-sj-D-4">
          <mxGeometry relative="1" as="geometry" />
        </mxCell>
        <mxCell id="YaJR7tYNzF8kgT7-sj-D-8" value="image in Assets" style="rounded=1;whiteSpace=wrap;html=1;fontStyle=1;fontSize=16;fontColor=#0000CC;strokeColor=none;fillColor=none;" vertex="1" parent="1">
          <mxGeometry x="700" y="260" width="160" height="30" as="geometry" />
        </mxCell>
        <mxCell id="YaJR7tYNzF8kgT7-sj-D-9" value="MetalKit View" style="rounded=1;whiteSpace=wrap;html=1;fontStyle=1;fontSize=16;fontColor=#000000;strokeColor=none;fillColor=none;" vertex="1" parent="1">
          <mxGeometry x="700" y="10" width="160" height="30" as="geometry" />
        </mxCell>
        <mxCell id="YaJR7tYNzF8kgT7-sj-D-10" value="" style="rounded=0;whiteSpace=wrap;html=1;fillColor=none;strokeColor=none;" vertex="1" parent="1">
          <mxGeometry width="40" height="40" as="geometry" />
        </mxCell>
        <mxCell id="YaJR7tYNzF8kgT7-sj-D-11" value="" style="rounded=0;whiteSpace=wrap;html=1;fillColor=none;strokeColor=none;" vertex="1" parent="1">
          <mxGeometry x="1600" width="40" height="40" as="geometry" />
        </mxCell>
        <mxCell id="YaJR7tYNzF8kgT7-sj-D-12" style="rounded=0;orthogonalLoop=1;jettySize=auto;html=1;strokeWidth=3;strokeColor=#CC0000;" edge="1" parent="1" source="YaJR7tYNzF8kgT7-sj-D-13" target="YaJR7tYNzF8kgT7-sj-D-14">
          <mxGeometry relative="1" as="geometry" />
        </mxCell>
        <mxCell id="YaJR7tYNzF8kgT7-sj-D-13" value="MTLOrigin(x: 0, y: 0, z: 0)" style="rounded=1;whiteSpace=wrap;html=1;fontStyle=1;fontSize=19;fontColor=#CC0000;strokeColor=none;fillColor=none;" vertex="1" parent="1">
          <mxGeometry x="280" y="10" width="240" height="30" as="geometry" />
        </mxCell>
        <mxCell id="YaJR7tYNzF8kgT7-sj-D-14" value="" style="ellipse;whiteSpace=wrap;html=1;aspect=fixed;fillColor=#CC0000;strokeColor=#CC0000;" vertex="1" parent="1">
          <mxGeometry x="435" y="75" width="20" height="20" as="geometry" />
        </mxCell>
        <mxCell id="YaJR7tYNzF8kgT7-sj-D-15" value="" style="endArrow=classic;html=1;rounded=0;strokeWidth=3;strokeColor=#00CC00;" edge="1" parent="1">
          <mxGeometry width="50" height="50" relative="1" as="geometry">
            <mxPoint x="1000" y="280.5" as="sourcePoint" />
            <mxPoint x="1000" y="120.5" as="targetPoint" />
          </mxGeometry>
        </mxCell>
        <mxCell id="YaJR7tYNzF8kgT7-sj-D-16" value="&lt;b&gt;&lt;font style=&quot;font-size: 19px;&quot;&gt;y&lt;/font&gt;&lt;/b&gt;" style="edgeLabel;html=1;align=center;verticalAlign=middle;resizable=0;points=[];labelBackgroundColor=none;" vertex="1" connectable="0" parent="YaJR7tYNzF8kgT7-sj-D-15">
          <mxGeometry x="-0.275" y="-1" relative="1" as="geometry">
            <mxPoint x="-1" y="-122" as="offset" />
          </mxGeometry>
        </mxCell>
        <mxCell id="YaJR7tYNzF8kgT7-sj-D-17" value="" style="endArrow=classic;html=1;rounded=0;strokeWidth=3;strokeColor=#CC0000;" edge="1" parent="1">
          <mxGeometry width="50" height="50" relative="1" as="geometry">
            <mxPoint x="1000" y="280.5" as="sourcePoint" />
            <mxPoint x="1160" y="280.5" as="targetPoint" />
          </mxGeometry>
        </mxCell>
        <mxCell id="YaJR7tYNzF8kgT7-sj-D-18" value="&lt;b&gt;&lt;font style=&quot;font-size: 19px;&quot;&gt;x&lt;/font&gt;&lt;/b&gt;" style="edgeLabel;html=1;align=center;verticalAlign=middle;resizable=0;points=[];labelBackgroundColor=none;" vertex="1" connectable="0" parent="YaJR7tYNzF8kgT7-sj-D-17">
          <mxGeometry x="-0.275" y="-1" relative="1" as="geometry">
            <mxPoint x="112" y="-1" as="offset" />
          </mxGeometry>
        </mxCell>
        <mxCell id="YaJR7tYNzF8kgT7-sj-D-19" value="" style="endArrow=classic;html=1;rounded=0;strokeWidth=3;strokeColor=#0000CC;" edge="1" parent="1">
          <mxGeometry width="50" height="50" relative="1" as="geometry">
            <mxPoint x="1000" y="280.5" as="sourcePoint" />
            <mxPoint x="1080" y="200" as="targetPoint" />
          </mxGeometry>
        </mxCell>
        <mxCell id="YaJR7tYNzF8kgT7-sj-D-20" value="&lt;b&gt;&lt;font style=&quot;font-size: 19px;&quot;&gt;z&lt;/font&gt;&lt;/b&gt;" style="edgeLabel;html=1;align=center;verticalAlign=middle;resizable=0;points=[];labelBackgroundColor=none;" vertex="1" connectable="0" parent="YaJR7tYNzF8kgT7-sj-D-19">
          <mxGeometry x="-0.275" y="-1" relative="1" as="geometry">
            <mxPoint x="60" y="-62" as="offset" />
          </mxGeometry>
        </mxCell>
      </root>
    </mxGraphModel>
  </diagram>
</mxfile>
